<svg width="48" height="54" viewBox="0 0 48 54" fill="none" xmlns="http://www.w3.org/2000/svg">
<g filter="url(#filter0_d)">
<path d="M44 30.9483C44 32.7087 43.312 34.3636 41.9359 35.9127C40.6116 37.4618 38.6297 38.7647 35.9842 39.8209C33.3934 40.8771 30.3095 41.5109 26.7293 41.7222V46H21.356V41.7222C16.1775 41.4052 11.9915 40.3666 8.79488 38.6062C5.59829 36.8458 4 34.5221 4 31.6349H14.083C14.2504 33.0079 14.9384 34.1523 16.1501 35.0678C17.3617 35.9479 19.0971 36.5114 21.356 36.7578V25.139C17.6662 24.5403 14.6614 23.9419 12.3477 23.3432C10.034 22.7096 8.05204 21.7237 6.39895 20.3857C4.80065 19.0478 4 17.2171 4 14.8932C4 11.9709 5.59829 9.55912 8.79488 7.65785C11.9915 5.72139 16.1775 4.59472 21.356 4.27784V0H26.7293V4.27784C31.5759 4.5595 35.4606 5.54534 38.3801 7.23535C41.3575 8.89015 43.038 11.1787 43.4216 14.101H33.3386C33.1742 13.0096 32.5136 12.0413 31.3567 11.1963C30.1999 10.3161 28.6564 9.71757 26.7293 9.40069V20.8082C30.4191 21.3715 33.4208 21.9702 35.7376 22.6038C38.0513 23.2025 40.0058 24.1707 41.6041 25.5086C43.2024 26.8112 44 28.6246 44 30.9483ZM13.5867 14.5764C13.5867 16.0199 14.2504 17.1465 15.5716 17.9565C16.9477 18.7662 18.8779 19.4174 21.356 19.9103V9.24223C18.9875 9.4183 17.0878 9.96403 15.6539 10.8795C14.2778 11.7949 13.5867 13.0272 13.5867 14.5764ZM26.7293 36.7578C29.1526 36.5114 31.0523 35.8951 32.4314 34.9093C33.8075 33.8882 34.4955 32.6735 34.4955 31.2651C34.4955 29.8569 33.8075 28.7653 32.4314 27.9908C31.1071 27.181 29.2074 26.5296 26.7293 26.0367V36.7578Z" fill="#49AA26"/>
<path d="M41.5621 35.5806L41.562 35.5806L41.5559 35.5878C40.3008 37.056 38.3971 38.3192 35.7988 39.3565L35.7954 39.3579C33.2674 40.3885 30.2399 41.0142 26.6998 41.2231L26.2293 41.2509V41.7222V45.5H21.856V41.7222V41.2519L21.3865 41.2232C16.253 40.9089 12.1465 39.8811 9.03608 38.1682C6.14577 36.5765 4.69073 34.5645 4.51759 32.1349H13.6579C13.9278 33.4611 14.6684 34.5749 15.8487 35.4667L15.8486 35.4668L15.8562 35.4723C17.1656 36.4234 18.9975 37.0035 21.3018 37.2549L21.856 37.3154V36.7578V25.139V24.7136L21.4361 24.6455C17.7558 24.0483 14.7689 23.453 12.4764 22.86C10.2239 22.2427 8.3083 21.2871 6.71674 19.9996C5.24775 18.7685 4.5 17.0864 4.5 14.8932C4.5 12.1963 5.95785 9.92701 9.05048 8.08758L9.05048 8.0876L9.05395 8.0855C12.1597 6.20408 16.2592 5.09066 21.3865 4.77691L21.856 4.74818V4.27784V0.5H26.2293V4.27784V4.74963L26.7003 4.777C31.5008 5.05598 35.3008 6.03059 38.1296 7.66808L38.1296 7.66814L38.1372 7.67238C40.8009 9.15284 42.3415 11.1277 42.8329 13.601H33.7455C33.4633 12.5243 32.7435 11.5911 31.6556 10.7954C30.4157 9.85334 28.7894 9.23272 26.8104 8.90731L26.2293 8.81175V9.40069V20.8082V21.2377L26.6538 21.3025C30.3337 21.8643 33.3147 22.4595 35.6057 23.0861L35.6057 23.0861L35.6124 23.0879C37.8646 23.6706 39.7496 24.6083 41.2832 25.892L41.2832 25.892L41.2882 25.8962C42.7541 27.0909 43.5 28.7531 43.5 30.9483C43.5 32.5652 42.8721 34.1059 41.5621 35.5806ZM15.3103 18.3827L15.3103 18.3828L15.3181 18.3874C16.7623 19.2372 18.7537 19.9025 21.2584 20.4007L21.856 20.5196V19.9103V9.24223V8.70369L21.3189 8.74361C18.8987 8.92352 16.9106 9.48396 15.3848 10.458L15.3848 10.4579L15.3769 10.4632C13.8732 11.4635 13.0867 12.8462 13.0867 14.5764C13.0867 16.2096 13.8546 17.4904 15.3103 18.3827ZM26.2293 36.7578V37.3113L26.7799 37.2553C29.2544 37.0036 31.248 36.3698 32.7222 35.316L32.7222 35.3161L32.7294 35.3108C34.2017 34.2184 34.9955 32.8667 34.9955 31.2651C34.9955 29.6541 34.1898 28.4095 32.6846 27.5595C31.289 26.7081 29.3267 26.0435 26.8268 25.5463L26.2293 25.4274V26.0367V36.7578Z" stroke="black"/>
</g>
<defs>
<filter id="filter0_d" x="0" y="0" width="48" height="54" filterUnits="userSpaceOnUse" color-interpolation-filters="sRGB">
<feFlood flood-opacity="0" result="BackgroundImageFix"/>
<feColorMatrix in="SourceAlpha" type="matrix" values="0 0 0 0 0 0 0 0 0 0 0 0 0 0 0 0 0 0 127 0"/>
<feOffset dy="4"/>
<feGaussianBlur stdDeviation="2"/>
<feColorMatrix type="matrix" values="0 0 0 0 0 0 0 0 0 0 0 0 0 0 0 0 0 0 0.25 0"/>
<feBlend mode="normal" in2="BackgroundImageFix" result="effect1_dropShadow"/>
<feBlend mode="normal" in="SourceGraphic" in2="effect1_dropShadow" result="shape"/>
</filter>
</defs>
</svg>
